<mxfile host="app.diagrams.net" agent="Mozilla/5.0 (Macintosh; Intel Mac OS X 10_15_7) AppleWebKit/537.36 (KHTML, like Gecko) Chrome/129.0.0.0 Safari/537.36" version="24.8.0">
  <diagram name="Diagrama de Classes" id="aoEHzP9olhmgtA9HM2PI">
    <mxGraphModel dx="645" dy="745" grid="1" gridSize="10" guides="1" tooltips="1" connect="1" arrows="1" fold="1" page="0" pageScale="1" pageWidth="1169" pageHeight="827" math="0" shadow="0">
      <root>
        <mxCell id="0" />
        <mxCell id="1" parent="0" />
        <mxCell id="Hh1gCxKj3CRM0F1j1AkX-9" value="Ciclista" style="swimlane;fontStyle=1;align=center;verticalAlign=top;childLayout=stackLayout;horizontal=1;startSize=26;horizontalStack=0;resizeParent=1;resizeParentMax=0;resizeLast=0;collapsible=1;marginBottom=0;whiteSpace=wrap;html=1;" parent="1" vertex="1">
          <mxGeometry x="280" y="200" width="320" height="170" as="geometry" />
        </mxCell>
        <mxCell id="Hh1gCxKj3CRM0F1j1AkX-10" value="- etapas: List&amp;lt;Etapa&amp;gt;" style="text;strokeColor=none;fillColor=none;align=left;verticalAlign=top;spacingLeft=4;spacingRight=4;overflow=hidden;rotatable=0;points=[[0,0.5],[1,0.5]];portConstraint=eastwest;whiteSpace=wrap;html=1;" parent="Hh1gCxKj3CRM0F1j1AkX-9" vertex="1">
          <mxGeometry y="26" width="320" height="24" as="geometry" />
        </mxCell>
        <mxCell id="Hh1gCxKj3CRM0F1j1AkX-11" value="" style="line;strokeWidth=1;fillColor=none;align=left;verticalAlign=middle;spacingTop=-1;spacingLeft=3;spacingRight=3;rotatable=0;labelPosition=right;points=[];portConstraint=eastwest;strokeColor=inherit;" parent="Hh1gCxKj3CRM0F1j1AkX-9" vertex="1">
          <mxGeometry y="50" width="320" height="8" as="geometry" />
        </mxCell>
        <mxCell id="Hh1gCxKj3CRM0F1j1AkX-12" value="+ adicionarEtapa(etapa: Etapa): void&lt;br&gt;+ compararComOutroCiclista(outroCiclista: Ciclista): String&lt;div&gt;+ compararEtapaComOutroCiclista(outroCiclista: Ciclista, numeroEtapa: int): String&lt;/div&gt;&lt;div&gt;+ getTempoTotal(): Duration&lt;br&gt;+ getEtapas(): List&amp;lt;Etapa&amp;gt;&lt;/div&gt;" style="text;strokeColor=none;fillColor=none;align=left;verticalAlign=top;spacingLeft=4;spacingRight=4;overflow=hidden;rotatable=0;points=[[0,0.5],[1,0.5]];portConstraint=eastwest;whiteSpace=wrap;html=1;" parent="Hh1gCxKj3CRM0F1j1AkX-9" vertex="1">
          <mxGeometry y="58" width="320" height="112" as="geometry" />
        </mxCell>
        <mxCell id="Hh1gCxKj3CRM0F1j1AkX-13" value="Etapa" style="swimlane;fontStyle=1;align=center;verticalAlign=top;childLayout=stackLayout;horizontal=1;startSize=26;horizontalStack=0;resizeParent=1;resizeParentMax=0;resizeLast=0;collapsible=1;marginBottom=0;whiteSpace=wrap;html=1;" parent="1" vertex="1">
          <mxGeometry x="840" y="190" width="170" height="180" as="geometry" />
        </mxCell>
        <mxCell id="Hh1gCxKj3CRM0F1j1AkX-14" value="- numero: int&lt;div&gt;- data: LocalDate&lt;/div&gt;&lt;div&gt;- horaInicial: LocalTime&lt;br&gt;- duracao: Duration&lt;/div&gt;" style="text;strokeColor=none;fillColor=none;align=left;verticalAlign=top;spacingLeft=4;spacingRight=4;overflow=hidden;rotatable=0;points=[[0,0.5],[1,0.5]];portConstraint=eastwest;whiteSpace=wrap;html=1;" parent="Hh1gCxKj3CRM0F1j1AkX-13" vertex="1">
          <mxGeometry y="26" width="170" height="64" as="geometry" />
        </mxCell>
        <mxCell id="Hh1gCxKj3CRM0F1j1AkX-15" value="" style="line;strokeWidth=1;fillColor=none;align=left;verticalAlign=middle;spacingTop=-1;spacingLeft=3;spacingRight=3;rotatable=0;labelPosition=right;points=[];portConstraint=eastwest;strokeColor=inherit;" parent="Hh1gCxKj3CRM0F1j1AkX-13" vertex="1">
          <mxGeometry y="90" width="170" height="8" as="geometry" />
        </mxCell>
        <mxCell id="Hh1gCxKj3CRM0F1j1AkX-16" value="+ getDuracao(): Duration&lt;br&gt;+ getNumero(): int&lt;br&gt;+ getData(): LocalDate&lt;br&gt;+ getHoraInicial(): LocalTime" style="text;strokeColor=none;fillColor=none;align=left;verticalAlign=top;spacingLeft=4;spacingRight=4;overflow=hidden;rotatable=0;points=[[0,0.5],[1,0.5]];portConstraint=eastwest;whiteSpace=wrap;html=1;" parent="Hh1gCxKj3CRM0F1j1AkX-13" vertex="1">
          <mxGeometry y="98" width="170" height="82" as="geometry" />
        </mxCell>
        <mxCell id="JG6lUSqUUGzMaWbQLmsw-1" value="Extends" style="endArrow=block;endSize=16;endFill=0;html=1;rounded=0;exitX=0.5;exitY=0;exitDx=0;exitDy=0;entryX=0.494;entryY=1.063;entryDx=0;entryDy=0;entryPerimeter=0;" parent="1" source="Hh1gCxKj3CRM0F1j1AkX-9" target="JG6lUSqUUGzMaWbQLmsw-8" edge="1">
          <mxGeometry width="160" relative="1" as="geometry">
            <mxPoint x="160" y="170" as="sourcePoint" />
            <mxPoint x="440" y="110" as="targetPoint" />
          </mxGeometry>
        </mxCell>
        <mxCell id="JG6lUSqUUGzMaWbQLmsw-2" value="" style="endArrow=diamondThin;endFill=1;endSize=24;html=1;rounded=0;entryX=0.998;entryY=0.069;entryDx=0;entryDy=0;entryPerimeter=0;exitX=-0.017;exitY=0.121;exitDx=0;exitDy=0;exitPerimeter=0;" parent="1" source="Hh1gCxKj3CRM0F1j1AkX-13" target="Hh1gCxKj3CRM0F1j1AkX-9" edge="1">
          <mxGeometry width="160" relative="1" as="geometry">
            <mxPoint x="640" y="280" as="sourcePoint" />
            <mxPoint x="800" y="280" as="targetPoint" />
          </mxGeometry>
        </mxCell>
        <mxCell id="JG6lUSqUUGzMaWbQLmsw-3" value="1..21" style="edgeLabel;html=1;align=center;verticalAlign=middle;resizable=0;points=[];" parent="JG6lUSqUUGzMaWbQLmsw-2" vertex="1" connectable="0">
          <mxGeometry x="-0.7111" relative="1" as="geometry">
            <mxPoint y="-14" as="offset" />
          </mxGeometry>
        </mxCell>
        <mxCell id="JG6lUSqUUGzMaWbQLmsw-4" value="1" style="edgeLabel;html=1;align=center;verticalAlign=middle;resizable=0;points=[];" parent="1" vertex="1" connectable="0">
          <mxGeometry x="812.1580487912031" y="210.0048675656948" as="geometry">
            <mxPoint x="-179" y="-11" as="offset" />
          </mxGeometry>
        </mxCell>
        <mxCell id="JG6lUSqUUGzMaWbQLmsw-5" value="&lt;i&gt;Participante&lt;/i&gt;" style="swimlane;fontStyle=1;align=center;verticalAlign=top;childLayout=stackLayout;horizontal=1;startSize=26;horizontalStack=0;resizeParent=1;resizeParentMax=0;resizeLast=0;collapsible=1;marginBottom=0;whiteSpace=wrap;html=1;" parent="1" vertex="1">
          <mxGeometry x="360" y="-70" width="160" height="140" as="geometry" />
        </mxCell>
        <mxCell id="JG6lUSqUUGzMaWbQLmsw-6" value="- numero: int&lt;div&gt;- nome: String&lt;/div&gt;&lt;div&gt;- cidade: String&lt;/div&gt;" style="text;strokeColor=none;fillColor=none;align=left;verticalAlign=top;spacingLeft=4;spacingRight=4;overflow=hidden;rotatable=0;points=[[0,0.5],[1,0.5]];portConstraint=eastwest;whiteSpace=wrap;html=1;" parent="JG6lUSqUUGzMaWbQLmsw-5" vertex="1">
          <mxGeometry y="26" width="160" height="54" as="geometry" />
        </mxCell>
        <mxCell id="JG6lUSqUUGzMaWbQLmsw-7" value="" style="line;strokeWidth=1;fillColor=none;align=left;verticalAlign=middle;spacingTop=-1;spacingLeft=3;spacingRight=3;rotatable=0;labelPosition=right;points=[];portConstraint=eastwest;strokeColor=inherit;" parent="JG6lUSqUUGzMaWbQLmsw-5" vertex="1">
          <mxGeometry y="80" width="160" height="8" as="geometry" />
        </mxCell>
        <mxCell id="JG6lUSqUUGzMaWbQLmsw-8" value="+ getNumero(): int&lt;div&gt;+ getNome(): String&lt;br&gt;+ getCidade(): String&lt;/div&gt;" style="text;strokeColor=none;fillColor=none;align=left;verticalAlign=top;spacingLeft=4;spacingRight=4;overflow=hidden;rotatable=0;points=[[0,0.5],[1,0.5]];portConstraint=eastwest;whiteSpace=wrap;html=1;" parent="JG6lUSqUUGzMaWbQLmsw-5" vertex="1">
          <mxGeometry y="88" width="160" height="52" as="geometry" />
        </mxCell>
      </root>
    </mxGraphModel>
  </diagram>
</mxfile>
